<svg width="353" height="44" viewBox="0 0 353 44" fill="none" xmlns="http://www.w3.org/2000/svg">
<path d="M80.1391 12.1322H81.9447V4.09027H87.6391V2.42643H80.1391V12.1322ZM88.752 12.1322H90.1409L95.8353 5.54613V12.1322H97.6409V2.42643H96.252L90.5575 9.01246V2.42643H88.752V12.1322ZM98.8877 12.1322H100.693L101.527 5.1995L104.027 10.4683H106.249L108.749 5.1995L109.582 12.1322H111.388L110.207 2.42643H108.263L105.138 9.01246L102.013 2.42643H100.068L98.8877 12.1322ZM112.637 12.1322H114.443V6.86334H119.581V12.1322H121.387V2.42643H119.581V5.1995H114.443V2.42643H112.637V12.1322ZM122.359 12.1322H124.234L124.998 9.98304L130.276 9.08179L131.318 12.1322H133.193L129.859 2.42643H125.693L122.359 12.1322ZM125.554 8.24987L127.012 4.09027H128.54L129.72 7.55661L125.554 8.24987ZM138.401 12.4095C141.457 12.4095 142.707 10.7456 143.123 10.2603L141.595 9.28977C141.179 9.77506 140.137 10.7456 138.401 10.7456C136.248 10.7456 134.859 9.22044 134.859 7.2793C134.859 5.33815 136.318 3.81297 138.401 3.81297C140.484 3.81297 141.248 5.06084 141.526 5.96209L143.331 5.75411C142.984 4.29825 141.734 2.14913 138.401 2.14913C134.929 2.14913 133.054 4.64489 133.054 7.2793C133.054 9.91371 134.929 12.4095 138.401 12.4095ZM147.224 12.1322H149.03V4.09027H152.502V2.42643H143.752V4.09027H147.224V12.1322ZM153.612 12.1322H155.001L160.695 5.54613V12.1322H162.501V2.42643H161.112L155.418 9.01246V2.42643H153.612V12.1322ZM170.97 12.1322H172.775V2.42643H170.97V7.34862L167.289 7.00199C166.525 6.93266 165.692 6.58603 165.692 5.54613V2.42643H163.886V5.61546C163.886 7.20997 165.136 8.47172 167.22 8.66583L170.97 9.01246V12.1322ZM174.445 12.1322H182.779V10.4683H176.251V7.34862H181.182V5.68478H176.251V4.09027H182.779V2.42643H174.445V12.1322ZM188.68 12.4095C191.736 12.4095 192.986 10.7456 193.403 10.2603L191.875 9.28977C191.458 9.77506 190.417 10.7456 188.68 10.7456C186.528 10.7456 185.139 9.22044 185.139 7.2793C185.139 5.33815 186.597 3.81297 188.68 3.81297C190.764 3.81297 191.528 5.06084 191.805 5.96209L193.611 5.75411C193.264 4.29825 192.014 2.14913 188.68 2.14913C185.208 2.14913 183.333 4.64489 183.333 7.2793C183.333 9.91371 185.208 12.4095 188.68 12.4095ZM194.587 12.146H196.393V9.28977L198.129 7.62593L201.393 12.1322H203.476L199.379 6.44738L203.615 2.42643H201.184L196.393 6.93266V2.4403H194.587V12.146ZM204.583 12.1322H205.972L211.667 5.54613V12.1322H213.472V2.42643H212.083L206.389 9.01246V2.42643H204.583V12.1322ZM217.358 1.38653H222.219V0H217.358V1.38653ZM215.135 12.1322H216.524L222.219 5.54613V12.1322H224.024V2.42643H222.635L216.941 9.01246V2.42643H215.135V12.1322ZM232.632 12.146H234.438V9.28977L236.174 7.62593L239.438 12.1322H241.521L237.424 6.44738L241.66 2.42643H239.229L234.438 6.93266V2.4403H232.632V12.146ZM242.351 12.1322H246.378L244.295 4.09027H249.712V12.1322H251.517V2.42643H242.073L244.156 10.4683H242.351V12.1322ZM257.695 12.1322L263.459 2.42643H261.375L258.598 7.14065L254.778 2.42643H252.486L257.625 8.80448L255.681 12.1322H257.695ZM264.425 12.1322H270.119C272.341 12.1322 273.452 10.5377 273.452 8.94314C273.452 7.34863 272.202 6.14234 270.119 5.96209L266.23 5.61546V4.09027H272.758V2.42643H264.425V12.1322ZM266.23 10.4683V7.20997L270.05 7.55661C270.813 7.62593 271.647 7.97256 271.647 9.01246C271.647 10.0524 270.883 10.4683 270.05 10.4683H266.23ZM10.6944 43.1905C16.8055 43.1905 19.3055 39.8628 20.1389 38.8923L17.0833 36.9511C16.25 37.9217 14.1667 39.8628 10.6944 39.8628C6.38888 39.8628 3.6111 36.8125 3.6111 32.9302C3.6111 29.0479 6.52777 25.9975 10.6944 25.9975C14.8611 25.9975 16.3889 28.4933 16.9444 30.2957L20.5556 29.8798C19.8611 26.9681 17.3611 22.6698 10.6944 22.6698C3.74999 22.6698 0 27.6613 0 32.9302C0 38.199 3.74999 43.1905 10.6944 43.1905ZM22.5076 42.6359H33.8964C38.3408 42.6359 40.5631 40.0015 40.5631 36.5351C40.5631 33.0688 37.7853 31.8209 37.7853 31.8209C37.7853 31.7932 39.1742 30.5731 39.1742 28.2159C39.1742 24.611 36.5353 23.2244 33.202 23.2244H22.5076V42.6359ZM26.1187 30.0184V26.4135H32.7854C34.7297 26.4135 35.5631 27.2454 35.5631 28.4933C35.5631 29.8798 34.4519 30.8504 34.4519 30.8504L26.1187 30.0184ZM26.1187 39.3082V33.2075L33.7576 33.9007C35.7019 34.0671 36.9519 34.594 36.9519 36.6738C36.9519 38.7536 35.2853 39.3082 33.7576 39.3082H26.1187ZM43.0697 42.6359H59.7363V39.3082H46.6808V33.0688H56.5419V29.7411H46.6808V26.5521H59.7363V23.2244H43.0697V42.6359ZM68.353 42.6359H71.9641V26.5521H78.9086V23.2244H61.4086V26.5521H68.353V42.6359ZM80.5728 42.6359H88.6284L84.4617 26.5521H95.295V42.6359H98.9061V23.2244H80.0172L84.1839 39.3082H80.5728V42.6359ZM100.844 42.6359H104.594L106.122 38.3376L116.678 36.5351L118.761 42.6359H122.511L115.844 23.2244H107.511L100.844 42.6359ZM107.233 34.8713L110.15 26.5521H113.205L115.567 33.4848L107.233 34.8713ZM124.45 42.6359H128.061V32.0982H138.339V42.6359H141.95V23.2244H138.339V28.7706H128.061V23.2244H124.45V42.6359ZM165.672 42.6359H169.283V23.2244H165.672V42.6359ZM145.283 42.6359H156.672C161.117 42.6359 163.339 39.4469 163.339 35.8419C163.339 32.2369 160.839 29.6857 156.672 29.3252L148.894 28.6319V23.2244H145.283V42.6359ZM148.894 39.3082V31.9596L156.533 32.6529C158.061 32.7915 159.728 33.4848 159.728 35.9805C159.728 38.4763 158.2 39.3082 156.533 39.3082H148.894ZM185.127 42.6359H189.571L195.266 35.4259L200.96 42.6359H205.405L197.766 32.9302L205.405 23.2244H200.96L195.266 30.4344L189.571 23.2244H185.127L192.766 32.9302L185.127 42.6359ZM215.555 43.1905C222.5 43.1905 226.25 38.199 226.25 32.9302C226.25 27.6613 222.5 22.6698 215.555 22.6698C208.611 22.6698 204.861 27.6613 204.861 32.9302C204.861 38.199 208.611 43.1905 215.555 43.1905ZM215.555 39.8628C211.389 39.8628 208.472 36.8125 208.472 32.9302C208.472 29.0479 211.389 25.9975 215.555 25.9975C219.722 25.9975 222.639 29.0479 222.639 32.9302C222.639 36.8125 219.722 39.8628 215.555 39.8628ZM228.752 42.6359H232.363V36.3965L240.141 35.7032C244.308 35.3427 246.808 32.7915 246.808 29.6025V23.2244H228.752V42.6359ZM232.363 33.0688V26.5521H243.197V29.4638C243.197 31.5436 241.53 32.2369 240.002 32.3755L232.363 33.0688ZM249.586 42.6636H253.197V36.9511L256.669 33.6234L263.197 42.6359H267.363L259.169 31.2663L267.641 23.2244H262.78L253.197 32.2369V23.2522H249.586V42.6636ZM269.578 42.6359H272.356L283.745 29.4638V42.6359H287.356V23.2244H284.578L273.189 36.3965V23.2244H269.578V42.6359ZM290.683 42.6359H294.294V32.0982H304.571V42.6359H308.183V23.2244H304.571V28.7706H294.294V23.2244H290.683V42.6359ZM321.377 43.1905C328.321 43.1905 332.072 38.199 332.072 32.9302C332.072 27.6613 328.321 22.6698 321.377 22.6698C314.433 22.6698 310.683 27.6613 310.683 32.9302C310.683 38.199 314.433 43.1905 321.377 43.1905ZM321.377 39.8628C317.21 39.8628 314.294 36.8125 314.294 32.9302C314.294 29.0479 317.21 25.9975 321.377 25.9975C325.544 25.9975 328.46 29.0479 328.46 32.9302C328.46 36.8125 325.544 39.8628 321.377 39.8628ZM339.018 21.1446H348.742V18.3716H339.018V21.1446ZM334.574 42.6359H337.351L348.742 29.4638V42.6359H352.353V23.2244H349.575L338.185 36.3965V23.2244H334.574V42.6359Z" fill="white"/>
</svg>
